<svg width="103" height="208" viewBox="0 0 103 208" fill="none" xmlns="http://www.w3.org/2000/svg">
<mask id="mask0_56_46" style="mask-type:luminance" maskUnits="userSpaceOnUse" x="0" y="0" width="103" height="208">
<path d="M0 0H102.625V207.674H0V0Z" fill="white"/>
</mask>
<g mask="url(#mask0_56_46)">
<path d="M102.36 32.8736C101.948 32.3069 101.466 31.8126 100.837 31.4437C99.697 30.759 98.4631 30.4576 97.1353 30.5396C96.6823 30.5637 96.2172 30.5998 95.728 30.4311C95.7979 30.2358 95.8316 30.0839 95.9039 29.9537C96.5762 28.7167 97.1522 27.4292 97.9956 26.2887C98.8945 25.0759 99.174 23.6678 99.1861 22.197C99.1933 21.0204 98.3426 20.2657 97.1401 20.326C96.9064 20.338 96.6726 20.3597 96.4389 20.3718C96.2172 20.3838 96.0003 20.5719 95.7159 20.3428C95.6605 20.1837 95.5713 19.9691 95.5039 19.7473C95.381 19.3663 95.205 19.036 94.8918 18.7684C94.7183 18.6213 94.6195 18.3898 94.4628 18.2186C93.9905 17.6978 93.5615 17.1167 93.0145 16.6924C92.4651 16.268 91.8506 15.8774 91.0794 15.9883C90.8963 16.0172 90.6963 15.9714 90.4745 15.957C90.2456 15.6339 90.1468 15.2385 89.8625 14.9612C89.2504 14.3656 88.5491 13.9895 87.6719 13.9847C86.9683 13.9798 86.2453 13.9871 85.5874 13.7315C85.0187 13.5072 84.4548 13.4687 83.8644 13.4807C83.6065 13.488 83.327 13.6375 83.0836 13.4132C82.9125 13.1649 82.9848 12.8828 82.9752 12.6175C82.9607 12.2269 83.0017 11.8291 82.9487 11.4433C82.58 8.79105 81.5751 6.41126 79.8424 4.34732C79.4399 3.8675 79.0134 3.41179 78.5628 2.97538C77.8591 2.29302 77.1868 1.58174 76.4831 0.904205C76.0011 0.446087 75.4613 0.0747718 74.801 0.0410156C74.7191 0.101294 74.6444 0.163984 74.5745 0.233907C73.2178 1.91206 72.0394 3.7156 70.9646 5.577C70.2778 6.76087 69.656 7.98091 69.3428 9.33597C69.0705 10.515 68.709 11.6796 68.48 12.8659C68.28 13.9003 68.1571 14.9612 68.2849 16.0221C68.427 17.2276 68.6945 18.4067 69.0849 19.5568C69.1452 19.7401 69.2126 19.9233 69.0415 20.1909C68.8897 20.2295 68.6704 20.3139 68.4439 20.338C67.745 20.4031 67.333 20.8612 66.9619 21.3796C66.7257 21.7075 66.6679 22.1054 66.6197 22.4912C66.5498 23.1108 66.4341 23.7233 66.2702 24.326C66.1787 24.6612 66.157 25.0205 66.1522 25.3701C66.1329 26.6673 66.0124 27.9476 65.5907 29.1845C65.369 29.8355 65.3955 30.4721 65.5666 31.1423C65.7594 31.8705 66.0919 32.5288 66.5666 33.1147C67.1956 33.9152 67.7908 34.7422 68.4632 35.5065C69.4681 36.6542 70.4489 37.8718 71.8442 38.5542C73.2395 39.2341 74.4106 40.3216 75.9433 40.8134C75.8951 41.0136 75.8806 41.1703 75.8204 41.3029C75.1023 42.8653 74.3841 44.4253 73.6491 45.9805C72.8442 47.6804 72.0827 49.3971 71.4803 51.1765C70.8754 52.956 70.2561 54.7233 69.7548 56.7198C69.1813 55.912 68.5885 55.2996 68.1162 54.5883C67.6173 53.8433 66.957 53.2357 66.369 52.6256C66.6871 50.7281 66.369 49.7612 65.046 48.4423C64.8798 48.2783 64.7304 48.0879 64.5448 47.948C63.9375 47.4851 63.5254 46.8654 63.1808 46.2072C62.723 45.3367 62.1735 44.5338 61.5879 43.7478C60.9638 42.9063 60.0505 42.4627 59.1034 42.3301C58.0792 42.1878 56.9852 42.1854 55.9754 42.5784C54.7754 43.0413 53.5198 43.3668 52.3993 44.042C51.551 44.5459 50.6401 44.881 49.6665 45.0474C49.3508 44.6472 49.0617 44.2831 48.7749 43.9142C48.4568 43.497 48.0495 43.2053 47.5555 43.0341C46.2614 42.588 45.0372 41.9732 43.6926 41.6646C43.1046 41.5296 42.5623 41.409 41.9743 41.573C41.4827 41.7104 40.9863 41.8189 40.4947 41.9491C40.0682 42.0552 39.6898 42.2553 39.3621 42.5495C38.7355 43.133 38.0439 43.6682 37.574 44.3988C36.8583 45.5103 35.8823 46.3181 34.781 47.0294C33.8436 47.6346 33.1086 48.4375 32.8845 49.6021C32.7953 50.0554 32.6555 50.5014 32.5495 50.921C32.2579 51.1042 31.976 50.9981 31.7109 51.0319C30.571 51.1814 29.6553 51.5792 29.1203 52.739C28.5781 53.918 28.3106 55.1887 27.7636 56.3581C27.5371 56.8379 27.525 57.337 27.5708 57.8506C27.6455 58.6487 27.9275 59.3672 28.4191 60.0037C29.0312 60.8115 29.6577 61.6096 30.4698 62.3208C30.2481 62.9598 30.0529 63.5891 29.8144 64.2015C29.4987 65.0069 29.277 65.8363 29.0794 66.6754C29.0047 66.9864 28.9878 67.2926 29.1035 67.5988C29.2962 68.11 29.4914 68.6236 29.6794 69.1371C29.7927 69.4361 29.971 69.6893 30.2144 69.8966C30.5951 70.2342 30.9687 70.5766 31.3711 70.8876C32.1832 71.5169 33.099 72.016 34.0846 72.2306C35.3015 72.491 36.5571 72.5971 37.7957 72.1848C38.2463 72.0402 38.7066 71.9702 39.1814 71.9751C40.8779 71.9751 42.519 72.3174 44.1552 72.7104C44.4733 72.7828 44.7264 72.9516 44.9143 73.2192C45.1216 73.5013 45.3264 73.7906 45.3915 74.1788C44.3263 75.9076 43.1769 77.5737 41.9406 79.182C41.5623 79.6835 41.2369 80.2163 40.967 80.783C40.5501 81.6245 40.608 82.4515 41.0803 83.2496C41.4803 83.9223 41.9093 84.5781 42.4346 85.1616C42.7262 85.4847 42.9961 85.8102 43.0636 86.3575C42.5214 87.0953 41.9141 87.7777 41.2442 88.3998C39.9019 89.668 40.0706 91.2087 40.4152 92.7663C40.4947 93.1256 40.7863 93.4487 41.0273 93.7525C41.155 93.914 41.2924 93.7645 41.3767 93.6247C40.6996 92.3106 40.7333 92.3082 40.6779 91.0809C40.6297 90.0514 41.0658 89.2846 41.7623 88.5927C42.8178 87.5462 43.854 86.4877 44.4613 85.0893C44.6469 84.6625 44.9577 84.2936 45.1963 83.8885C45.9313 82.6371 47.1748 82.3936 48.4399 82.4032C49.8256 82.4129 51.098 82.9747 52.3197 83.6136C52.5655 83.739 52.8113 83.8644 52.968 84.2357C52.9535 84.4913 52.9342 84.8409 52.915 85.1905C52.8403 86.5142 52.715 87.8355 52.9945 89.152C53.2041 90.1285 53.556 90.9893 54.3416 91.6861C55.1103 92.3661 55.9658 92.8989 56.8261 93.439C57.0599 93.5861 57.3298 93.7091 57.4238 93.9767C57.6021 94.4807 57.8575 94.9653 57.8961 95.4813C57.8238 95.5488 57.7997 95.5874 57.766 95.6043C57.6238 95.6645 57.4792 95.7176 57.3298 95.7658C55.2236 96.4289 53.2427 97.321 51.6305 98.9437C51.5028 98.8858 51.351 98.84 51.2257 98.7604C50.4039 98.2083 49.5027 97.8514 48.5243 97.6899C48.0592 97.6079 47.6182 97.4512 47.2013 97.2221C46.1434 96.6338 45.1047 96.0045 44.0757 95.3631C43.0805 94.7411 41.2249 93.861 40.0103 94.1889C37.2077 94.3215 35.0919 95.5681 33.752 98.066C33.6604 98.2396 33.593 98.4277 33.2917 98.5362C32.7736 98.2589 32.123 98.1697 31.4796 98.0371C31.3277 97.7912 31.2048 97.5476 31.0386 97.333C30.8506 97.0823 30.6385 96.8532 30.4024 96.6459C28.2383 94.8447 25.7899 94.2275 23.0693 95.0304C21.7366 95.4234 20.4281 95.6356 19.0328 95.4162C16.7507 95.0593 14.8855 95.9394 13.3576 97.579C12.666 98.324 12.1118 99.1824 11.5792 100.055C10.661 101.555 9.83448 103.115 8.76933 104.523C8.21989 105.258 7.87288 106.078 7.72829 106.985C7.60539 107.708 7.57647 108.446 7.46803 109.155C7.15716 109.29 6.91617 109.42 6.65591 109.5C5.8679 109.743 5.13772 110.112 4.41718 110.505C4.17379 110.63 3.94968 110.787 3.74484 110.973C2.93996 111.725 2.26521 112.581 1.72541 113.543C1.05306 114.737 0.698819 115.988 0.922933 117.37C0.985588 117.755 0.9639 118.158 1.05547 118.534C1.44587 120.142 1.2579 121.729 0.872327 123.301C0.484344 124.9 0.231313 126.522 0.12046 128.164C-0.00244053 129.949 0.655442 131.448 2.10616 132.569C2.51824 132.905 2.99057 133.049 3.52073 132.999C4.06294 132.955 4.60274 132.914 5.1329 132.729C6.28239 132.326 7.43911 132.362 8.55968 132.873C8.82958 132.996 9.15009 133.117 9.20792 133.527C9.15732 133.664 9.09707 133.797 9.032 133.927C8.31628 135.195 8.20784 136.601 8.10181 138.007C8.09458 138.202 8.10663 138.397 8.13796 138.59C8.3187 139.943 9.01514 141.028 10.0321 141.867C10.8972 142.583 11.8178 143.251 12.8853 143.678C14.0469 144.145 14.8493 145.038 15.594 145.927C15.5289 146.236 15.3433 146.315 15.1626 146.376C13.9215 146.778 12.8203 147.446 11.772 148.201C9.8899 149.551 8.54281 151.367 7.4126 153.354C6.52337 154.921 5.70403 156.522 5.11121 158.226C4.86782 158.926 4.56659 159.613 4.49912 160.365C4.45092 160.939 4.51117 161.064 5.05097 161.221C5.64861 161.397 6.26552 161.508 6.86316 161.686C8.35725 162.135 9.84171 162.617 11.3382 163.061C12.5046 163.406 13.7047 163.611 14.9264 163.584C16.4519 163.553 17.9797 163.533 19.4979 163.406C21.1077 163.271 22.6475 162.829 24.0501 161.985C25.1248 161.339 26.1972 160.698 27.3178 160.134C28.3998 159.586 29.3975 158.906 30.2264 157.99C30.7687 157.392 31.3807 156.855 31.976 156.273C32.0435 156.377 32.1398 156.464 32.1639 156.568C32.6194 158.559 33.4508 160.423 34.0942 162.352C34.2966 162.945 34.5449 163.519 34.834 164.073C35.9763 166.277 37.5475 168.182 39.0946 170.104C39.4079 170.494 39.7983 170.574 40.2489 170.41C41.6466 169.899 42.7575 169.002 43.6685 167.837C44.2709 167.071 44.8661 166.297 45.4927 165.549C46.1964 164.715 46.9458 163.919 47.6495 163.085C48.9556 161.544 49.9268 159.827 50.3991 157.843C50.6088 156.927 50.8666 156.025 51.1751 155.138C51.7631 153.52 52.2041 151.861 52.4981 150.164C52.6812 149.042 52.7318 147.916 52.6427 146.783C52.5173 144.984 52.1631 143.227 51.7342 141.479C51.7052 141.358 51.592 141.172 51.886 141.122C51.9631 141.233 52.0595 141.353 52.1366 141.481C53.0114 142.971 53.6741 144.563 54.3175 146.156C54.9898 147.825 55.479 149.558 55.9754 151.29C56.5683 153.356 57.1996 155.413 57.7997 157.477C58.9082 161.272 59.6962 165.146 60.4168 169.031C60.6529 170.297 60.8144 171.579 60.9349 172.862C61.053 174.109 61.0505 175.362 61.1445 176.611C61.2578 178.169 61.4626 179.724 61.5373 181.284C61.6193 182.999 61.694 184.72 61.7518 186.437C61.8121 188.354 61.8627 190.271 61.9084 192.187C61.9446 193.629 61.9205 195.076 61.9711 196.518C62.0747 199.334 62.2121 202.15 62.3446 204.966C62.3808 205.745 62.4507 206.524 62.5205 207.303C62.5302 207.431 62.5061 207.619 62.788 207.631C63.0652 207.238 63.0314 206.763 63.0146 206.305C62.988 205.68 62.9061 205.058 62.8651 204.434C62.7929 203.341 62.7133 202.249 62.6724 201.154C62.641 200.255 62.5519 199.339 62.6796 198.456C63.0362 195.98 63.4797 193.514 63.9038 191.049C64.2508 189.043 64.6195 187.042 64.9906 185.041C65.1665 184.079 65.3569 183.119 65.5666 182.164C65.9015 180.64 66.4799 179.184 66.7377 177.636C66.8606 176.908 67.1185 176.202 67.3354 175.495C67.8077 173.964 68.2897 172.433 68.7789 170.907C68.8487 170.692 68.9138 170.449 69.2512 170.338C70.4947 170.528 71.8128 170.675 73.1334 170.801C74.3865 170.919 75.6372 170.897 76.8855 170.822C77.5506 170.776 78.2013 170.653 78.8375 170.453C80.0352 170.082 81.163 169.542 82.2426 168.896C82.78 168.57 83.2643 168.175 83.6885 167.712C84.65 166.682 85.5802 165.614 86.6188 164.669C87.6575 163.724 88.5057 162.579 89.5299 161.609C89.6697 161.472 89.7902 161.315 89.8841 161.144C90.3492 160.319 90.9854 159.623 91.5325 158.861C91.7156 158.607 91.9132 158.359 92.053 158.082C92.5976 156.999 93.1639 155.931 93.6001 154.795C94.6098 152.167 95.5472 149.517 96.3955 146.834C96.7015 145.865 96.9425 144.874 97.2124 143.895C97.3474 143.396 97.3787 142.892 97.3112 142.38C97.251 141.869 96.9955 141.575 96.4991 141.529C96.0003 141.486 95.5135 141.3 94.9906 141.336C93.47 141.438 91.9421 141.479 90.4215 141.58C88.7756 141.698 87.1683 142.012 85.5971 142.523C83.8427 143.082 82.1028 143.661 80.4665 144.522C80.2569 144.625 80.04 144.714 79.8159 144.789C78.6977 145.189 77.7169 145.855 76.7964 146.564C75.524 147.543 74.442 148.755 73.5142 150.067C72.0442 152.143 70.6465 154.267 69.2367 156.384C68.5186 157.465 67.9378 158.622 67.6462 159.895C67.4968 160.539 67.3306 161.202 67.3306 161.853C67.3209 162.68 67.4101 163.495 67.5956 164.298C68.0077 166.002 68.039 167.796 68.8222 169.351C68.2463 170.451 67.8077 171.606 67.5113 172.814C67.3474 173.496 67.1546 174.174 66.9715 174.854C66.6871 175.907 66.3594 176.954 66.1305 178.02C66.01 178.593 65.8943 179.165 65.7208 179.727C65.5834 180.175 65.4388 180.621 65.3208 181.074C64.6412 183.688 64.3014 186.369 63.7544 189.01C63.4387 190.541 63.2652 192.098 63.0049 193.641C62.9326 194.058 62.882 194.497 62.6242 194.972C62.5736 194.741 62.5326 194.625 62.5278 194.512C62.4748 192.911 62.4073 191.31 62.3808 189.711C62.3398 187.363 62.2916 185.017 62.135 182.671C61.9157 179.391 61.7205 176.11 61.453 172.836C61.3277 171.196 61.118 169.568 60.8192 167.953C60.3662 165.571 59.8095 163.208 59.2576 160.847C58.9275 159.439 58.5443 158.041 58.1467 156.65C57.5105 154.431 56.8623 152.215 56.1803 150.014C55.7513 148.633 55.2525 147.273 54.7657 145.913C54.6067 145.472 54.3464 145.066 54.1994 144.625C53.8885 143.695 53.409 142.841 52.9969 141.956C52.6041 141.107 52.0137 140.379 51.4136 139.714C51.4883 139.424 51.7101 139.42 51.8763 139.328C52.2523 139.121 52.6306 138.911 52.915 138.576C53.7126 137.657 54.5079 136.743 55.2935 135.822C56.0092 134.99 56.7803 134.219 57.6069 133.5C59.2094 132.102 60.6144 130.525 61.5156 128.572C62.0771 127.352 62.4362 126.079 62.1759 124.707C62.1494 124.562 62.1928 124.401 62.2049 124.227C62.6483 124.381 62.7977 124.767 63.0073 125.083C63.3929 125.678 63.8652 126.192 64.4267 126.624C65.8967 127.728 67.2703 128.953 68.7861 130.004C69.3283 130.39 69.8296 130.824 70.2922 131.306C70.6754 131.709 71.1309 132.003 71.6562 132.186C72.2466 132.389 72.8442 132.569 73.4347 132.77C74.6926 133.199 75.9505 133.63 77.206 134.062C79.0688 134.701 81.028 134.843 82.9487 135.193C83.1752 135.234 83.4186 135.181 83.6523 135.2C84.2066 135.243 84.5271 134.903 84.7681 134.489C84.8765 134.298 84.8958 134.04 84.9054 133.811C84.9922 131.81 84.8572 129.826 84.4958 127.856C84.3777 127.2 84.2572 126.546 84.156 125.891C83.6403 122.505 82.8113 119.217 81.2136 116.164C80.1725 114.177 79.0038 112.289 77.2952 110.792C77.1482 110.667 77.006 110.539 77.0181 110.322C77.9193 109.951 77.9193 109.951 79.0375 110.245C80.5195 110.633 81.8835 110.122 82.7053 108.87C82.833 108.673 82.927 108.46 82.9872 108.234C83.2402 107.315 83.2451 106.382 83.1631 105.442C83.0017 103.631 83.3752 101.938 84.3247 100.383C84.7127 99.749 85.1271 99.1293 85.5031 98.4904C86.2067 97.2921 86.72 96.0407 86.5995 94.6036C86.5682 94.2178 86.5056 93.8224 86.6646 93.4149C86.7682 93.3305 86.8887 93.2365 87.0068 93.1352C87.9948 92.2817 88.366 91.2039 87.9659 89.967C87.59 88.8024 87.4454 87.6065 87.5346 86.384C87.5948 85.4654 87.3153 84.7035 86.7827 83.985C86.5224 83.6353 86.2453 83.3195 85.8886 83.0663C85.3127 82.6588 84.7006 82.3092 84.0572 82.0223C83.1463 81.6196 82.3751 81.0265 81.7028 80.3007C81.4642 80.0452 81.2618 79.751 81.0377 79.4834C80.4714 78.8034 79.8038 78.3139 78.8929 78.162C78.1941 78.0439 77.5073 77.9161 76.7964 78.0029C76.606 78.0246 76.4036 78.056 76.1963 77.8028C76.1963 77.6485 76.1891 77.417 76.1963 77.1904C76.206 76.9227 76.1216 76.6382 76.3578 76.3754C76.7891 76.1319 77.3097 76.1463 77.8109 76.1126C79.1893 76.021 80.5292 75.7557 81.7871 75.1795C82.6739 74.7744 83.5318 74.3018 84.3777 73.8172C85.9031 72.9395 87.349 71.9292 88.9443 71.1697C89.154 71.0612 89.3492 70.9334 89.5299 70.7815C91.7879 69.0069 93.8073 67.0105 95.4195 64.6162C96.1617 63.5144 96.7618 62.3184 97.5932 61.2744C97.7113 61.1273 97.7763 60.9272 97.8318 60.7415C98.1523 59.6276 98.2655 59.3455 96.9449 58.7162C95.7834 58.164 94.5592 57.73 93.2772 57.5154C92.0458 57.3105 90.8192 57.0645 89.5588 57.0428C88.8985 57.0308 88.2382 56.9126 87.5828 56.8066C85.9561 56.5486 84.3247 56.3894 82.6763 56.4208C81.6184 56.4425 80.5605 56.4835 79.505 56.4473C77.7049 56.387 76.018 56.8138 74.3769 57.5082C73.9455 57.6914 73.4949 57.8265 73.0684 58.0194C72.6129 58.2243 72.1743 58.4678 71.7189 58.6993C71.3405 58.3545 70.9935 58.0459 70.6537 57.7252C70.5163 57.6046 70.42 57.4576 70.3621 57.2864C70.3043 57.1152 70.2922 56.9416 70.3284 56.7632C70.4416 56.1507 70.5308 55.5238 70.714 54.9259C71.1164 53.6214 71.5502 52.3242 72.0153 51.0343C72.2659 50.3375 72.6466 49.6889 72.89 48.9872C73.4081 47.5092 74.1552 46.1348 74.7769 44.7002C75.2709 43.5549 75.8782 42.4554 76.4252 41.3342C76.5289 41.1221 76.6012 40.8954 76.9434 40.7532C77.6567 40.8593 78.4616 40.9967 79.2689 41.1004C80.3533 41.2354 81.3967 41.6453 82.5125 41.5826C82.6595 41.573 82.8113 41.6477 82.9583 41.6983C83.8282 41.9877 84.5873 42.4434 85.1946 43.1426C85.6886 43.714 86.3007 44.1215 86.9972 44.4205C87.3562 44.5724 87.6936 44.7749 88.0406 44.951C88.4286 45.1487 88.8503 45.3295 89.2745 45.2741C91.3614 44.9944 93.1808 44.189 94.4869 42.4578C95.1038 41.6381 95.4846 40.6881 95.9593 39.7911C96.087 39.5452 96.1762 39.2872 96.3931 39.1039C97.3185 38.3203 98.2125 37.5005 99.3909 37.0858C99.9813 36.8809 100.519 36.5481 101.085 36.2829C101.955 35.8778 102.369 35.1979 102.598 34.3178C102.736 33.7922 102.668 33.2979 102.36 32.8736ZM68.468 166.121C68.2222 164.698 68.0728 163.259 67.8848 161.826C67.8631 161.674 67.8222 161.51 67.8559 161.363C68.121 160.141 68.3933 158.916 69.0054 157.807C69.3837 157.125 69.8006 156.464 70.2368 155.815C71.4321 154.026 72.6153 152.23 73.8588 150.477C75.23 148.546 76.8687 146.856 78.9604 145.708C80.187 145.035 81.5004 144.502 82.8089 143.991C84.0066 143.523 85.2404 143.133 86.4791 142.776C87.3442 142.52 88.2238 142.337 89.1154 142.224C90.3565 142.074 91.6023 141.932 92.8579 141.961C93.2507 141.971 93.6387 141.944 94.0266 141.881C94.7737 141.754 95.5087 141.872 96.2437 141.961C96.61 142.007 96.7811 142.216 96.8003 142.602C96.8172 142.875 96.8028 143.147 96.7546 143.417C96.6558 143.916 96.5329 144.411 96.3859 144.898C96.0027 146.209 95.6147 147.521 95.2026 148.825C95.0026 149.457 94.7351 150.07 94.511 150.694C93.7712 152.756 93.0579 154.829 92.0891 156.799C91.7807 157.428 91.3999 158.024 91.0119 158.612C89.6504 160.676 88.0768 162.562 86.2863 164.271C85.2982 165.216 84.3536 166.21 83.4113 167.203C82.9318 167.724 82.392 168.168 81.7871 168.534C79.7267 169.759 77.8567 170.473 74.9384 170.362C73.4178 170.424 71.8731 170.164 70.3212 169.976C69.7476 169.908 69.4343 169.609 69.2367 169.065C68.8945 168.105 68.6367 167.124 68.468 166.121ZM52.1221 44.775C52.2691 44.7219 52.433 44.6881 52.5535 44.5965C53.5463 43.8563 54.7681 43.6321 55.8574 43.1137C56.8984 42.617 58.0045 42.8075 59.0938 42.8002C59.8649 43.1571 60.6891 43.3837 61.253 44.1312C61.8627 44.951 62.3543 45.8359 62.87 46.7111C63.1688 47.2247 63.5134 47.6828 63.9616 48.0734C64.3183 48.382 64.6532 48.7099 64.9689 49.0571C65.7449 49.9227 66.0702 50.9161 65.8196 52.0301C65.5666 52.2181 65.3979 52.0904 65.222 52.0228C64.1665 51.6274 63.0893 51.6154 61.9952 51.8396C60.4409 52.1555 59.0167 52.7052 57.7876 53.7661C57.2623 54.2218 56.655 54.5883 56.1417 55.1911C56.2092 53.6962 56.2092 53.9445 55.2043 53.3683C55.1441 53.0837 55.1127 52.7703 55.0139 52.481C54.8019 51.8565 54.1584 51.7335 53.7295 52.2374C53.5295 52.4713 53.3777 52.7462 53.2066 53.0018C52.8523 53.0813 52.5077 52.7727 52.127 53.1947C52.0547 52.5871 52.0474 52.2326 51.9679 51.8951C51.833 51.3212 51.2016 51.1621 50.7919 51.584C50.7076 51.6684 50.6377 51.76 50.5798 51.8637C50.4497 52.1024 50.334 52.3508 50.1967 52.6208L49.2062 52.9897C48.746 52.5726 48.2616 52.5268 47.8808 53.0596C47.6085 53.1416 47.4495 53.0042 47.276 52.927C47.1169 52.8571 46.9699 52.8764 46.835 52.9897C46.6181 53.1537 46.4277 53.349 46.1795 53.5756C45.4035 52.9487 45.0083 52.2278 45.2445 51.1621C45.6108 49.496 46.4735 48.1337 47.6206 46.9329C48.1604 46.3639 48.8472 45.9709 49.5942 45.7032C50.4401 45.3994 51.2787 45.086 52.1221 44.775ZM52.5921 53.4912C52.8354 53.9807 52.5655 54.2941 52.3462 54.6052C52.1535 54.8825 51.8763 55.003 51.3871 54.8945C51.5173 54.1278 51.8571 53.6576 52.5921 53.4912ZM51.1245 53.484C50.9244 53.402 50.7678 53.1151 50.7558 52.7944C50.7799 52.4713 50.8015 52.1169 51.1582 51.936C51.2691 51.8975 51.3703 51.9143 51.4643 51.9843C51.7462 52.2616 51.6956 52.5919 51.5872 52.9367C51.4618 53.32 51.2859 53.5491 51.1269 53.484H51.1245ZM53.0451 55.1742C53.8428 55.4587 53.9006 55.6034 53.6692 56.9199C53.1367 56.7752 52.833 56.51 52.7174 56.0784C52.6258 55.7215 52.7053 55.3888 53.0475 55.1742H53.0451ZM53.0909 54.2001C53.1367 54.1639 53.2572 54.1422 53.2789 54.1688C53.3897 54.311 53.4837 54.4702 53.621 54.6872C53.1921 54.7691 53.0596 54.6076 52.9897 54.3809C52.9776 54.3327 53.0403 54.2387 53.0933 54.2001H53.0909ZM53.6186 53.2742C53.6933 52.9198 53.8789 52.6353 54.2018 52.4593C54.356 52.3749 54.503 52.4424 54.5946 52.5822C54.6573 52.6739 54.732 52.7872 54.7296 52.8884C54.7199 53.4502 54.5368 53.9228 54.0114 54.1929C53.6644 53.9518 53.5415 53.6504 53.621 53.2742H53.6186ZM54.5946 55.683C54.7488 55.2007 54.9199 54.7233 55.0959 54.2459C55.1513 54.0916 55.2935 54.012 55.4573 53.9952C55.6116 53.9807 55.7634 54.2001 55.7682 54.4292C55.7827 55.1501 55.3682 55.6613 54.8958 56.1338C54.826 56.2062 54.6669 56.1628 54.6284 56.0229C54.5994 55.912 54.5633 55.7818 54.5946 55.683ZM50.0111 54.6341C49.6569 54.5377 49.4858 54.3424 49.4231 54.053C49.3725 53.8457 49.4207 53.6672 49.5677 53.5129C49.6786 53.3948 49.8063 53.3008 49.9726 53.349C50.1388 53.3972 50.2232 53.5226 50.2545 53.6865C50.3196 54.012 50.1919 54.2941 50.0111 54.6341ZM48.5773 54.9138C48.4568 55.3333 48.3941 55.3478 47.8061 55.5311C47.6856 54.8801 48.0905 54.3255 48.1122 53.7155C48.1194 53.5322 48.2519 53.3538 48.5725 53.2574C49.1074 53.8264 48.7363 54.3785 48.5773 54.9138ZM47.1651 55.2104C46.4928 54.3737 46.4566 54.1977 46.8326 53.6335C46.9 53.5395 46.9892 53.484 47.1025 53.4647C47.2736 53.4478 47.3796 53.5901 47.4278 53.7348C47.5965 54.2387 47.517 54.7113 47.1651 55.208V55.2104ZM34.981 47.4561C35.3401 47.2247 35.704 46.9956 36.0534 46.7497C36.7956 46.224 37.4053 45.5755 37.8849 44.8039C38.1765 44.3409 38.5572 43.9528 38.9307 43.5501C39.9983 42.3927 41.3671 41.9997 42.8515 42.0672C43.6106 42.101 44.3697 42.3976 45.1047 42.6459C45.8807 42.9063 46.6325 43.2391 47.3844 43.5646C48.1459 43.8901 48.6207 44.4928 48.9532 45.3753C46.4012 46.81 45.2059 49.1078 44.6083 51.7866C44.1504 51.76 43.8516 51.4803 43.5311 51.2754C42.572 50.6509 41.5382 50.4122 40.4056 50.5786C39.8272 50.663 39.232 50.675 38.6681 50.8197C37.9355 51.0029 37.2053 51.0222 36.4607 51.0222C35.957 51.0222 35.4509 51.0849 34.9449 51.1235C34.3256 51.1693 33.7111 51.1789 33.0773 50.9234C33.2002 49.4429 33.7376 48.2615 34.981 47.4561ZM30.3542 61.3443C29.5782 60.8476 28.9998 60.158 28.554 59.3696C27.9347 58.2749 27.9757 57.1224 28.3853 55.9675C28.6335 55.2707 28.942 54.5907 29.1661 53.8867C29.2987 53.4671 29.5324 53.1151 29.7156 52.7269C30.1373 51.8275 30.9084 51.5454 31.8121 51.4852C32.1206 51.4635 32.4363 51.5093 32.7471 51.5093C34.3111 51.5117 35.8727 51.5527 37.4342 51.4924C38.2897 51.461 39.1332 51.2513 39.9862 51.1355C40.4104 51.0704 40.8369 51.0319 41.2659 51.0198C41.7358 51.0174 42.1985 51.0946 42.6274 51.3188C43.0082 51.5165 43.4034 51.6925 43.7793 51.8975C44.3456 52.1916 44.8083 52.6015 45.1722 53.1271C45.6734 53.8722 46.1747 54.6172 46.6759 55.3623C46.8109 55.5648 46.8711 55.7866 46.794 56.1073C46.1409 56.6788 45.3481 57.1947 44.7457 57.9181C44.1528 58.6318 43.5648 59.3479 42.972 60.0616C42.5358 59.8084 42.331 59.4106 42.0322 59.1092C41.6779 58.7475 41.3526 58.3569 41.0176 57.9784C40.1622 57.0067 39.0199 56.5052 37.8487 56.0591C37.6367 55.9795 37.3885 55.9747 37.1571 55.9602C36.8438 55.9434 36.5281 55.9747 36.2197 55.9434C34.5352 55.7722 33.1809 56.4521 31.9808 57.554C31.0988 58.3642 30.6144 59.3407 30.6723 60.5631C30.6843 60.8283 30.6409 61.0984 30.6241 61.366C30.4915 61.3564 30.4072 61.3757 30.3542 61.3443ZM43.0178 72.0353C42.3455 71.8256 41.6562 71.7147 40.9574 71.6278C39.8296 71.488 38.7066 71.3554 37.5909 71.7219C36.5185 72.0739 35.422 71.9317 34.3352 71.8424C33.5761 71.7822 32.9182 71.3699 32.2965 70.9865C30.9687 70.1691 29.8939 69.1179 29.6192 67.471C29.5661 67.1576 29.5445 66.8658 29.6288 66.5524C29.8312 65.7953 30.0385 65.043 30.3493 64.3245C30.9277 62.9815 31.3109 61.5927 31.2482 60.1243C31.2193 59.4009 31.4723 58.8247 31.9254 58.3135C32.8869 57.2261 34.0267 56.5389 35.5425 56.4232C37.8029 56.2544 39.5766 57.1224 41.0466 58.7379C41.596 59.3383 42.1888 59.9217 42.4901 60.7126C42.4129 61.0719 42.1575 61.325 41.9551 61.6071C41.2827 62.5306 40.7767 63.5385 40.4296 64.6283C40.0296 65.8869 40.1043 67.0901 40.767 68.2402C41.3044 69.154 41.9334 69.9979 42.6563 70.7719C42.9985 71.1432 43.3311 71.5218 43.6588 71.8907C43.4564 72.2186 43.2034 72.0908 43.0178 72.0353ZM42.3479 69.7255C41.9454 69.2529 41.6273 68.7055 41.2972 68.1727C40.4827 66.8586 40.5622 65.4963 41.1405 64.1244C41.6105 63.0032 42.184 61.9423 43.0395 61.0622C43.1214 60.9778 43.1913 60.8838 43.2443 60.7801C43.96 59.4082 44.989 58.287 46.1265 57.2695C46.9482 56.5365 47.8808 55.9723 49.0448 55.9193C49.5484 55.8976 50.0352 55.736 50.5533 55.736C51.0474 55.7215 51.4739 55.8831 51.833 56.2206C52.2619 56.6161 52.6957 57.0236 53.0571 57.4817C53.903 58.5402 54.9344 59.3455 56.1321 59.9651C57.3466 60.5945 58.3154 61.4986 58.8648 62.7669C59.5854 64.4282 59.3733 66.0557 58.5467 67.6254C58.4624 67.758 58.3491 67.8592 58.2045 67.9243C57.925 68.0618 57.6286 68.1679 57.3394 68.2836C56.3201 68.6838 55.614 69.3421 55.5104 70.4994C55.5031 70.5718 55.4549 70.6417 55.3995 70.7767C53.6259 71.4615 51.8378 71.5893 50.0328 71.4735C48.8231 71.394 47.8037 71.799 46.8567 72.4669C46.4494 72.7539 46.0952 73.1179 45.6662 73.4941C44.5577 72.2379 43.4323 70.9985 42.3503 69.7255H42.3479ZM66.4678 91.9249C66.4751 91.9586 66.4703 91.9875 66.451 92.0141C66.3281 92.1587 66.1714 92.0768 66.0341 92.0502C65.8847 92.0213 65.7642 91.9369 65.7425 91.7488C65.8413 91.703 65.9425 91.6693 66.0485 91.6476C66.2558 91.6235 66.4028 91.7199 66.4678 91.9249ZM66.5666 88.8121C66.704 88.6143 66.892 88.4962 67.1305 88.46C67.2438 88.448 67.3474 88.4769 67.4366 88.5468C67.574 88.6626 67.5306 88.8169 67.439 88.9495C67.198 89.3064 66.7787 89.369 66.4558 89.6246C66.3208 89.2798 66.41 89.0315 66.5666 88.8121ZM66.2871 90.6614C66.1763 90.9676 65.9305 91.1678 65.6557 91.3148C65.4027 91.4523 65.1352 91.4233 64.7882 91.31C64.8749 90.4902 65.3858 90.266 65.9955 90.1695C66.0799 90.1575 66.2244 90.2491 66.2726 90.3311C66.3208 90.4396 66.3257 90.5481 66.2871 90.6614ZM65.422 87.7536C65.3063 87.8982 65.1521 88.014 64.9641 88.1924C64.6316 87.85 64.7038 87.6161 64.9087 87.3967C65.0485 87.2472 65.2244 87.1797 65.4268 87.2569C65.5762 87.3147 65.5858 87.5486 65.422 87.7536ZM64.9039 88.9157C65.0653 88.9085 65.2292 88.923 65.3159 89.0508C65.4388 89.234 65.3449 89.4148 65.2123 89.5643C65.0027 89.8006 64.7569 89.9622 64.6002 89.9477C64.2002 89.8995 64.0508 89.5788 64.1713 89.3956C64.3496 89.1327 64.5641 88.9326 64.9039 88.9133V88.9157ZM66.2967 92.6313C68.1065 93.1015 69.9211 93.55 71.7357 93.9936C72.3792 94.1503 73.0563 94.0901 73.7046 94.2781C74.0082 94.3673 74.2925 94.459 74.56 94.6326C75.4059 95.1823 75.5384 96.0961 74.801 96.7737C74.3167 97.2173 73.7985 97.6393 73.1575 97.8731C71.5429 98.4566 69.9404 99.0739 68.3234 99.6477C67.2824 100.019 66.1955 100.229 65.1087 99.8937C64.3255 99.6526 63.5688 99.3488 62.8362 98.9774C62.0747 98.5917 61.3735 98.0877 60.6409 97.6393C60.0673 97.2872 59.5854 96.8484 59.2239 96.2721C58.9974 95.9105 58.6986 95.5946 58.4696 95.2305C58.3058 94.9629 58.1756 94.6808 58.0768 94.3842C57.8455 93.7236 57.9756 93.2871 58.525 92.8314C59.2094 92.2624 60.0071 91.9683 60.8867 91.9128C61.3542 91.8839 61.8241 91.908 62.4772 91.908C63.6821 91.8332 64.9786 92.2865 66.2967 92.6289V92.6313ZM66.8028 91.4667C67.2438 91.1195 67.5691 90.7289 68.1306 90.7458C68.3258 90.7506 68.5066 90.97 68.427 91.1316C68.1644 91.6669 67.598 91.9128 66.998 91.7392C66.9426 91.7199 66.9112 91.6186 66.8028 91.4643V91.4667ZM73.131 93.726C71.9141 93.6609 70.7597 93.2606 69.5837 92.993C69.0126 92.8628 68.4559 92.6747 67.8728 92.5976C67.6728 92.5686 67.5017 92.4915 67.4197 92.2576C67.6655 92.1515 67.9137 92.0454 68.1619 91.9345C68.415 91.8188 68.6246 91.6452 68.7885 91.4185C68.9716 91.1822 69.0006 90.8567 68.856 90.6542C68.6849 90.4179 68.4487 90.278 68.1547 90.3118C67.7185 90.3576 67.3595 90.606 66.9546 90.7964C66.6895 90.5505 66.7932 90.2949 66.9546 90.0852C67.1667 89.8055 67.4342 89.5716 67.6607 89.3039C67.7884 89.1569 67.8969 88.9977 67.9812 88.8217C68.0149 88.7494 68.0294 88.6746 68.027 88.5951C68.0222 88.5131 68.0029 88.4408 67.9619 88.3708C67.9234 88.3009 67.8704 88.2454 67.8053 88.1996C67.7378 88.1562 67.6655 88.1297 67.586 88.1225C67.1474 88.0743 66.7281 88.1128 66.3666 88.4094C66.2461 88.5083 66.1281 88.6095 65.9931 88.7229C65.6461 88.5565 65.5256 88.3877 65.663 88.1152C65.7859 87.8717 65.9425 87.6427 66.0244 87.3871C66.1473 87.0182 65.8244 86.6927 65.4364 86.7433C65.0485 86.7963 64.6918 86.9338 64.3641 87.1508L63.2314 86.8615C63.0242 86.7554 63.0579 86.5191 62.9471 86.3648C62.6844 86.0007 62.3952 85.9404 62.0482 86.1646C61.8482 86.2972 61.6988 86.4708 61.6 86.6903C61.4867 86.9314 61.5446 87.2472 61.2819 87.4257C60.9903 87.363 60.8192 87.1291 60.6529 86.9266C59.7444 85.8247 59.1371 84.5709 58.9082 83.1531C58.7901 82.4225 58.913 82.2104 59.6504 81.9162C60.5614 81.5545 61.5036 81.3134 62.4772 81.1929C63.164 81.1012 63.8026 81.2363 64.3954 81.5955C64.8002 81.8342 65.1906 82.0946 65.5858 82.3478C66.2413 82.7673 66.8703 83.2182 67.6246 83.4858C68.362 83.7511 68.6921 84.3442 68.709 85.1327C68.7234 85.7788 68.5981 86.3768 68.2535 86.9241C68.0897 87.1821 67.921 87.4377 67.7812 87.6571C67.9378 87.9609 68.1595 87.9923 68.2921 87.8355C69.1476 86.818 69.4536 85.6462 69.1427 84.3418C69.0873 84.1513 68.9982 83.9825 68.8704 83.8306C68.6777 83.5871 68.4535 83.3701 68.2487 83.1507C68.2969 82.8445 68.5355 82.7866 68.7499 82.7215C69.7139 82.4225 70.6465 82.3815 71.5646 82.9385C72.1984 83.3243 72.7719 83.7294 73.2852 84.2984C73.9817 85.0676 74.7697 85.7933 75.8107 86.1478C76.1819 86.2804 76.5216 86.4708 76.8277 86.7192C77.3964 87.1677 77.7916 87.7439 77.8133 88.5034C77.8302 89.1665 77.8133 89.832 77.8302 90.495C77.8711 92.1684 77.1651 93.4294 75.7601 94.3143C75.63 94.3963 75.5167 94.5024 75.3625 94.6205C74.7528 93.9719 73.9793 93.7694 73.131 93.7236V93.726ZM63.9231 87.9465C63.7857 88.3202 63.564 88.6119 63.1061 88.7277C62.7447 88.2961 62.9278 87.9392 63.07 87.5896C63.1158 87.4787 63.1977 87.4015 63.311 87.363C63.4242 87.322 63.5351 87.3316 63.6411 87.3871C63.8773 87.5052 63.9978 87.7367 63.9231 87.9465ZM62.2314 87.334C62.1856 87.375 62.135 87.3847 62.0747 87.3678C62.0169 87.3509 61.9807 87.3123 61.9663 87.2521C61.8627 86.9627 61.9422 86.753 62.2097 86.5938C62.2796 86.5601 62.347 86.5601 62.4169 86.589C62.4723 86.6203 62.494 86.7071 62.5326 86.7747C62.5567 87.023 62.4073 87.1918 62.2314 87.334ZM74.1841 84.39C73.7985 84.3201 73.6058 84.0284 73.4009 83.7342C72.8418 82.9289 71.9743 82.5045 71.1284 82.1428C70.4971 81.8752 69.738 81.9596 69.0488 82.1308C68.3764 82.2947 67.7161 82.5117 67.0703 82.6998C66.6558 82.572 66.4028 82.2513 66.0799 82.0392C65.1328 81.4147 64.193 80.7733 63.0025 80.7058C61.9639 80.6431 60.9975 80.9445 60.036 81.27C59.6384 81.405 59.2504 81.569 58.7829 81.7498C58.6046 80.7564 58.4407 79.8402 57.9708 79.0976C58.1539 78.4176 58.5178 77.9571 58.9347 77.5472C59.3805 77.1108 59.8673 76.7154 60.3252 76.2886C60.7108 75.939 61.159 75.7099 61.6699 75.6014C62.5013 75.4182 63.323 75.2229 64.2122 75.3941C65.2436 75.5918 66.3112 75.5845 67.3498 75.7581C68.2632 75.9076 69.2006 75.9776 70.0079 76.5755C70.4344 76.889 70.7887 77.2169 71.0031 77.687C71.5164 78.8203 72.2755 79.7365 73.3214 80.4165C73.7865 80.7227 74.1335 81.135 74.4227 81.6124C75.03 82.6082 74.9721 83.3822 74.1865 84.39H74.1841ZM72.8804 79.194C72.4153 79.1265 72.2876 78.8589 72.1406 78.6395C71.9165 78.3164 71.7213 77.9788 71.555 77.6219C70.9983 76.3682 69.9886 75.7364 68.6969 75.4471C68.1234 75.3145 67.545 75.2301 66.9594 75.1915C66.2991 75.1505 65.6437 75.042 65.0219 74.9673C64.6966 74.7093 64.6195 74.3524 64.4532 74.0486C63.8773 72.9853 63.3568 71.881 62.2988 71.1721C61.0144 70.309 59.6143 69.94 58.0768 70.1571C57.5009 70.239 56.9346 70.3644 56.3634 70.4705C56.1441 70.1522 56.1803 69.8532 56.4164 69.6073C56.6526 69.3614 56.9201 69.0986 57.2237 68.9346C58.2624 68.368 59.3444 67.9629 60.5638 67.9846C62.0482 68.0111 63.5327 68.0304 65.0147 67.8496C65.5834 67.7797 66.169 67.9147 66.7353 68.1003C67.8728 68.4668 68.8463 69.1203 69.7645 69.8484C70.5356 70.4609 71.3068 71.0468 72.2538 71.3554C72.4755 71.4277 72.678 71.5579 72.8949 71.6471C74.1431 72.1704 74.8998 73.1276 75.2203 74.4103C75.4469 75.3169 75.5746 76.25 75.7336 77.1735C75.7963 77.5231 75.7842 77.8751 75.5649 78.2561C74.6179 78.4562 73.6829 78.8372 72.8828 79.194H72.8804ZM45.6831 73.5013C45.7024 73.5158 45.7313 73.5158 45.6831 73.5013V73.5013ZM53.0837 83.3364C52.3487 83.2086 51.6763 82.7939 50.9895 82.4804C50.187 82.1139 49.3291 82.0609 48.505 81.8342C46.929 81.9355 45.4855 82.2996 44.6324 83.8162C44.3119 84.39 43.8588 84.8723 43.6106 85.5618C42.7383 84.7879 42.1045 84.0067 41.6008 83.1362C41.1695 82.3912 41.0225 81.6027 41.5334 80.8119C41.7864 80.4165 41.9816 79.9825 42.2611 79.6111C43.5745 77.8607 44.8011 76.0499 46.0108 74.2295C46.1193 74.0655 46.2397 73.9136 46.3506 73.7497C47.2157 72.4645 48.4881 71.922 49.9677 71.9751C52.3342 72.0667 54.6356 71.7243 56.8719 70.9431C58.2503 70.4657 59.6721 70.4801 60.9879 71.0154C61.4168 71.189 61.7952 71.4832 62.1904 71.7339C62.67 72.0353 62.9688 72.5007 63.2579 72.9636C63.5953 73.5109 64.0532 74.0052 64.1038 74.7744C63.417 74.7792 62.7591 74.8178 62.1133 74.9625C61.2988 75.1385 60.571 75.4905 59.9252 76.0161C59.0408 76.7371 58.2118 77.4917 57.6455 78.3983C57.378 78.5454 57.1996 78.4634 57.0093 78.4176C56.014 78.1765 55.2308 78.4514 54.6766 79.2953C54.0404 80.2525 53.6186 81.2965 53.4138 82.4274C53.3584 82.7239 53.3993 83.0591 53.0837 83.3364ZM57.5539 93.1087C57.4238 93.1015 57.2936 93.1304 57.2021 93.0798C56.2381 92.5638 55.3055 92.002 54.5464 91.1919C53.9681 90.5722 53.5753 89.8657 53.4885 89.0242C53.3102 87.3461 53.2885 85.6752 53.7006 84.0187C53.8596 83.3749 53.9681 82.7191 54.0861 82.0657C54.2476 81.1639 54.6838 80.3755 55.1127 79.5894C55.4019 79.0662 55.9176 78.8251 56.4863 78.8492C57.0719 78.8733 57.5009 79.2085 57.7394 79.7655C57.9033 80.1247 58.0166 80.496 58.0768 80.8842C58.1684 81.581 58.26 82.2779 58.3564 82.9723C58.5853 84.5998 59.2576 86.0344 60.2577 87.3196C60.7927 87.9947 61.4 88.5999 62.0795 89.1327C62.5687 89.5209 63.0314 89.9381 63.4869 90.3672C63.7978 90.6614 64.0749 90.9941 64.1158 91.6018C63.6604 91.5511 63.2845 91.4957 62.9037 91.4691C62.5133 91.4354 62.1229 91.4257 61.7325 91.4354C61.1493 91.4619 60.5541 91.4595 59.9878 91.5849C59.0118 91.8019 58.1756 92.2913 57.5539 93.1087ZM53.2909 98.1914C54.8163 97.1233 56.5345 96.5012 58.1997 96.0021C58.525 96.0937 58.6046 96.2794 58.6961 96.4506C59.0769 97.1618 59.6577 97.673 60.3348 98.0853C60.9662 98.4711 61.5903 98.8714 62.2314 99.2403C63.111 99.7611 64.0411 100.156 65.0268 100.427C66.3329 100.771 67.5836 100.439 68.8198 100.034C68.9692 99.9853 69.1066 99.9057 69.2488 99.8479C70.0031 99.5441 70.1163 99.5875 70.5621 100.313C71.1598 101.28 71.6393 102.305 72.0008 103.385C72.3984 104.569 72.731 105.774 72.9985 106.994C73.3238 108.494 72.4755 109.533 71.3598 109.794C70.8248 109.919 70.2971 110.061 69.7428 110.03C68.7018 109.97 67.7209 110.184 66.8004 110.674C65.0051 111.607 63.1085 111.564 61.1879 111.214C61.0722 111.192 60.9445 111.185 60.8505 111.127C59.6914 110.409 58.3708 109.963 57.2912 108.989C57.3466 108.605 57.4213 108.299 57.431 107.99C57.4575 107.192 57.3177 106.452 56.749 105.815C55.8863 104.841 55.1995 103.756 54.6886 102.56C54.1849 101.398 53.4596 100.383 52.4643 99.5778C52.3776 99.5079 52.3246 99.397 52.245 99.2933C52.5149 98.8497 52.8644 98.4832 53.2909 98.1866V98.1914ZM33.405 100.299C33.6894 99.5296 33.9135 98.7556 34.3424 98.0371C35.3449 96.3565 36.827 95.3053 38.6657 94.8544C40.4224 94.4204 42.1406 94.6422 43.7022 95.7103C44.6685 96.371 45.6879 96.9569 46.7121 97.5259C47.2904 97.849 47.9098 98.1311 48.5725 98.2203C49.6159 98.3602 50.5003 98.8545 51.3414 99.4235C52.6354 100.296 53.6042 101.446 54.2476 102.871C54.7199 103.896 55.2067 104.921 56.0164 105.755C56.4309 106.196 56.6984 106.71 56.8213 107.301C56.9466 107.809 56.8719 108.284 56.602 108.731C56.1417 108.677 55.6525 108.61 55.1585 108.564C53.5873 108.432 52.0306 108.605 50.5003 108.921C49.2809 109.172 48.0809 109.533 46.8832 109.876C46.3988 110.016 45.9409 110.247 45.4686 110.428C45.1553 110.551 44.8661 110.768 44.5023 110.698C44.7167 108.899 43.9143 107.544 42.584 106.44C42.1045 106.042 41.5767 105.702 41.0827 105.319C40.1863 104.629 39.3476 103.877 38.6681 102.963C37.9885 102.049 36.8294 101.678 35.7546 102.073C35.2799 102.249 34.8364 102.503 34.3786 102.729C33.9593 102.932 33.5424 103.141 33.1423 103.339C32.8532 103.161 32.9471 102.912 32.952 102.7C32.9688 101.873 33.1206 101.07 33.405 100.294V100.299ZM33.5014 115.694C33.3881 115.306 33.1014 114.997 32.7471 114.744C32.3591 114.469 32.229 114.071 32.2411 113.618C32.282 112.109 32.7736 110.785 33.8749 109.724C34.5135 109.107 35.6702 109.073 36.3522 109.62C36.5739 109.794 36.7257 110.013 36.8101 110.281C37.0149 110.891 37.0438 111.511 36.892 112.135C36.533 113.628 36.0269 115.057 34.9907 116.314C34.7858 116.113 34.6003 115.889 34.3689 115.723C34.1304 115.547 33.8412 115.742 33.5014 115.691V115.694ZM34.3448 116.429C34.3448 117.116 34.1183 117.683 33.3351 118.11C33.1279 117.259 33.4026 116.702 33.8581 116.205C33.9135 116.142 34.0846 116.128 34.1665 116.166C34.2677 116.224 34.328 116.311 34.3448 116.424V116.429ZM32.8387 116.552C32.3905 116.444 32.2218 116.138 32.2603 115.694C32.2772 115.499 32.3278 115.311 32.5423 115.229C32.7134 115.163 32.9447 115.373 32.9761 115.663C33.005 115.952 33.1327 116.275 32.8387 116.55V116.552ZM32.3109 117.842C32.4941 118.187 32.6435 118.541 32.4073 118.913C32.1688 118.939 32.0001 118.833 31.8386 118.73C31.5543 118.546 31.4723 118.264 31.5808 117.929C31.6362 117.758 31.7832 117.683 31.9278 117.645C32.0868 117.604 32.2338 117.698 32.3109 117.842ZM30.0553 118.115C29.9445 117.823 29.8794 117.529 30.0433 117.23C30.1108 117.107 30.359 117.059 30.4433 117.17C30.7903 117.611 30.9879 118.081 30.7494 118.638C30.3469 118.657 30.171 118.423 30.0553 118.115ZM29.7951 120.564C29.3228 120.56 29.2167 120.224 29.0938 119.899C28.995 119.631 28.995 119.381 29.1492 119.132C29.2336 118.98 29.3637 118.92 29.5348 118.949C29.6384 118.963 29.7806 119.031 29.8168 119.11C30.024 119.6 30.2578 120.101 29.7951 120.567V120.564ZM31.1663 119.938C31.4627 120.367 31.4314 120.762 31.2554 121.17C30.8891 121.09 30.8289 120.818 30.7879 120.543C30.7518 120.304 30.7855 120.08 31.1663 119.94V119.938ZM31.2169 115.453C31.5494 115.482 31.6747 115.716 31.7254 115.99C31.7736 116.253 31.8145 116.535 31.629 116.764C31.588 116.808 31.5374 116.834 31.4771 116.839C31.4193 116.844 31.3663 116.83 31.3157 116.796C31.1012 116.678 30.9687 116.499 30.9157 116.258C30.8458 115.93 30.9349 115.653 31.2193 115.455L31.2169 115.453ZM31.3446 119.086C31.6627 119.065 31.8724 119.221 32.0844 119.347C32.3832 119.52 32.3808 119.59 32.0049 120.234C31.788 119.757 31.2988 119.617 31.3446 119.089V119.086ZM31.7181 115.175C31.4241 115.226 31.0892 115.004 30.8289 115.282C30.6 115.528 30.5831 115.846 30.5686 116.162C30.5638 116.277 30.5397 116.393 30.5229 116.499C29.4553 117.003 29.4288 117.051 29.5734 118.341C28.8263 118.681 28.8263 118.681 28.4504 119.511C28.207 119.511 28.0648 119.347 28.2142 119.173C28.4938 118.865 28.5974 118.503 28.5203 118.093C28.4817 117.758 28.3154 117.505 28.0239 117.333C27.3901 116.972 27.072 116.979 26.778 117.743C26.5153 118.428 26.7563 118.869 27.2913 119.212C27.2093 119.501 27.0286 119.641 26.8455 119.752C26.4864 119.711 26.4671 119.364 26.2695 119.195C25.9297 118.901 25.4911 118.809 25.202 119.004C24.9104 119.2 24.7248 119.696 24.8549 120.046C24.9875 120.393 25.1827 120.738 25.3803 121.148C22.2065 121.085 19.0665 121.186 15.9723 121.015C15.4325 120.347 15.4711 119.716 15.7795 119.077C16.0808 118.431 16.5073 117.878 17.0591 117.425C17.7291 116.885 18.387 116.328 19.0858 115.834C19.6642 115.419 20.1582 114.925 20.6353 114.409C21.0667 113.955 21.4715 113.48 21.8499 112.984C22.4379 112.191 23.1343 111.53 23.9103 110.917C24.3224 110.59 24.7248 110.481 25.202 110.527C26.6069 110.662 27.9901 110.896 29.2601 111.568C29.8095 111.86 30.3614 112.157 30.8988 112.477C31.3157 112.728 31.588 113.09 31.6627 113.599C31.7374 114.088 31.8579 114.578 31.9567 115.05C31.8507 115.108 31.788 115.163 31.7205 115.178L31.7181 115.175ZM27.513 119.856C27.7034 119.704 27.8769 119.778 28.0094 119.923C28.1636 120.092 28.2986 120.277 28.4167 120.473C28.4697 120.562 28.4649 120.685 28.5058 120.88C28.0118 120.875 27.7515 120.646 27.4841 120.444C27.2913 120.297 27.3154 120.015 27.513 119.858V119.856ZM27.1611 118.44C27.0551 118.216 27.1298 117.984 27.2527 117.784C27.3081 117.698 27.4214 117.575 27.4985 117.582C27.6359 117.596 27.8142 117.659 27.8913 117.765C28.1347 118.1 28.1347 118.467 27.9251 118.831C27.578 118.86 27.3081 118.749 27.1635 118.443L27.1611 118.44ZM26.4888 120.449C26.4382 120.644 26.3297 120.743 26.1707 120.781C25.9683 120.832 25.802 120.757 25.6478 120.625C25.3996 120.41 25.2767 120.14 25.2863 119.812C25.2791 119.687 25.3104 119.571 25.3779 119.465C25.4453 119.359 25.5369 119.282 25.6526 119.233C26.2165 119.443 26.3249 119.981 26.4912 120.451L26.4888 120.449ZM17.17 121.608C17.6761 121.666 18.1821 121.666 18.6858 121.606C19.3075 121.539 19.9292 121.522 20.551 121.659C20.8498 121.727 21.1848 121.768 21.4812 121.707C22.7295 121.449 23.9729 121.652 25.2188 121.693C25.5321 121.702 25.843 121.736 26.1852 121.76C27.1322 121.76 28.1106 121.734 29.089 121.765C31.6964 121.85 34.0918 122.597 36.1329 124.256C37.9427 125.724 37.9692 127.793 36.5065 129.522C36.2414 129.833 35.904 130.011 35.4943 130.055C33.5833 130.305 31.776 130.928 29.9927 131.634C29.6312 131.779 29.2312 131.834 28.8745 131.984C27.4455 132.584 26.0261 132.367 24.6308 131.906C23.2958 131.468 22.0089 130.891 20.7462 130.269C19.2906 129.551 18.0062 128.608 16.97 127.347C16.3723 126.619 15.6542 126.016 14.9361 125.416C14.0637 124.687 13.5191 123.759 13.2661 122.66C13.1215 122.035 13.3649 121.676 14.0107 121.606C15.0638 121.485 16.1169 121.485 17.17 121.608ZM36.3161 123.87C35.2533 123.048 34.1135 122.399 32.8387 121.973C32.6604 121.91 32.4989 121.801 32.2483 121.674C32.417 120.601 32.8773 119.672 33.6243 118.886C34.287 118.165 34.9111 117.413 35.4943 116.627C36.2799 115.581 36.8077 114.418 37.2053 113.181C37.4511 112.427 37.5258 111.655 37.5113 110.874C37.7644 110.821 37.8945 110.987 37.9813 111.151C38.4584 112.055 39.2657 112.596 40.1019 113.109C40.767 113.519 41.4153 113.958 42.0659 114.389C42.6949 114.814 43.1793 115.368 43.5191 116.048C44.0613 117.102 44.4251 118.204 44.4661 119.405C44.5047 120.528 44.2131 121.558 43.7167 122.556C42.8515 124.304 41.4394 125.394 39.6344 126.028C39.1573 126.194 38.6922 126.39 38.2415 126.563C37.9813 126.498 37.9668 126.303 37.9138 126.11C37.6559 125.17 37.0848 124.466 36.3161 123.87ZM42.0057 113.384C41.6779 113.524 41.4972 113.338 41.302 113.227C40.8923 112.996 40.4875 112.757 40.0923 112.506C39.4585 112.109 38.897 111.65 38.4994 110.983C38.1307 110.373 37.6559 109.859 37.0776 109.442C36.3305 108.892 35.5184 108.762 34.6412 108.825C34.1906 108.858 33.8099 109.039 33.499 109.369C32.8098 110.074 32.1929 110.823 31.9904 111.831C31.9446 112.055 31.8338 112.268 31.7374 112.523C31.2482 112.217 30.8024 111.92 30.3445 111.653C29.4987 111.163 28.6528 110.674 27.6817 110.459C27.1635 110.346 27.0262 110.136 27.0888 109.623C27.2117 108.603 27.4407 107.614 28.154 106.818C28.889 106.001 29.6577 105.232 30.7662 104.906C31.3615 104.73 31.9326 104.468 32.5134 104.234C32.7664 104.132 33.0411 104.048 33.2556 103.891C33.9882 103.346 34.8509 103.069 35.6437 102.65C35.9642 102.481 36.2992 102.377 36.6535 102.404C37.2125 102.445 37.7114 102.601 38.0849 103.086C38.4705 103.58 38.885 104.048 39.3235 104.494C40.0875 105.287 40.9911 105.912 41.878 106.548C42.6636 107.113 43.2347 107.836 43.6636 108.692C43.8974 109.157 43.9721 109.654 44.0203 110.16C44.0444 110.426 44.1384 110.681 44.4541 110.725C44.3191 111.055 44.042 111.255 43.7721 111.46C43.0515 112.005 42.3647 112.584 42.0081 113.384H42.0057ZM33.1472 98.9365C33.1616 99.7876 32.7086 100.518 32.6146 101.319C32.523 102.093 32.47 102.871 32.4025 103.645C32.2025 103.935 31.8796 103.988 31.5952 104.101C31.1229 104.289 30.6433 104.453 30.1662 104.629C30.0553 104.663 29.9469 104.709 29.8457 104.767C28.4383 105.721 27.1202 106.749 26.8262 108.588C26.7491 109.085 26.631 109.574 26.5201 110.119C25.9104 110.269 25.4285 109.982 24.9152 110.018C24.4453 110.045 24.0187 110.196 23.638 110.469C22.5801 111.19 21.8065 112.147 21.0329 113.133C20.3148 114.052 19.5389 114.937 18.5605 115.559C18.2375 115.535 18.1387 115.311 18.0375 115.103C17.5676 114.122 17.4977 113.073 17.517 112.014C17.5266 111.585 17.6206 111.161 17.6953 110.739C17.8905 109.63 18.358 108.685 19.1967 107.891C19.9076 107.219 20.6401 106.594 21.4595 106.052C22.8933 105.102 24.3079 104.118 25.361 102.717C25.761 102.187 26.1635 101.659 26.5515 101.121C27.378 99.9781 28.4118 99.1414 29.7951 98.7484C30.9301 98.4205 32.0242 98.4422 33.1472 98.9389V98.9365ZM8.02229 108.494C8.10663 107.146 8.42714 105.873 9.25612 104.769C9.8899 103.923 10.4177 103.014 10.955 102.105C11.8081 100.663 12.6443 99.2041 13.7697 97.9358C14.5722 97.0317 15.5434 96.4168 16.6712 96.0262C16.9314 95.9418 17.1989 95.9008 17.4736 95.9008C17.9821 95.896 18.4978 95.8743 18.9942 95.9611C20.3437 96.1926 21.6402 96.0238 22.9054 95.5464C23.4596 95.3366 24.0356 95.2546 24.6236 95.2112C26.6406 95.0593 28.3877 95.7152 29.9324 96.9738C30.1397 97.1546 30.3252 97.3523 30.4915 97.5717C30.5614 97.6561 30.5735 97.7863 30.653 98.0106C30.4096 98.0853 30.2674 98.1456 30.1228 98.1721C28.7661 98.4229 27.6238 99.0474 26.7298 100.101C26.1972 100.726 25.6695 101.355 25.1851 102.015C24.2284 103.327 23.0596 104.412 21.6836 105.271C20.6522 105.912 19.6786 106.616 18.8304 107.503C18.0592 108.309 17.4062 109.157 17.2158 110.293C17.1965 110.404 17.1314 110.508 17.0784 110.611C17.064 110.643 17.023 110.662 16.9387 110.734L15.3385 110.216C14.7457 110.025 14.1625 109.791 13.5577 109.656C12.9889 109.529 12.3937 109.514 11.8154 109.427C11.1984 109.333 10.5888 109.181 9.96943 109.114C9.39107 109.054 8.80548 109.068 8.28014 109.054C8.07771 108.921 7.99096 108.735 8.02229 108.494ZM8.11627 132.16C7.39573 131.877 6.67278 131.861 5.93296 132.049C5.47751 132.164 5.02687 132.297 4.56418 132.369C2.9737 132.62 2.10616 132.55 1.13018 130.525C0.730147 129.693 0.612065 128.82 0.701229 127.904C0.860278 126.346 1.13982 124.813 1.46996 123.282C1.66757 122.37 1.73023 121.43 1.85554 120.502C1.95193 119.788 1.71818 119.11 1.61455 118.421C1.5278 117.842 1.47237 117.259 1.4531 116.673C1.40972 115.537 1.75432 114.522 2.30376 113.55C3.20504 111.959 4.5184 110.872 6.21491 110.18C7.61984 109.599 9.07297 109.425 10.5743 109.656C12.2756 109.905 13.9625 110.209 15.606 110.737C16.1 110.896 16.5627 111.074 16.9362 111.532C16.9555 113.051 16.9917 114.616 17.8086 115.949C17.6761 116.318 17.4206 116.441 17.2061 116.603C16.6495 117.037 16.1747 117.548 15.7289 118.098C15.1457 118.812 14.912 119.59 15.071 120.497C15.0903 120.61 15.071 120.728 15.071 120.945C14.6228 121.167 14.177 121.047 13.7625 121.129C13.0179 121.281 12.6467 121.681 12.7359 122.428C12.8251 123.161 12.9962 123.889 13.4492 124.509C13.8155 125.015 14.2131 125.498 14.6927 125.908C15.1072 126.257 15.5048 126.628 15.9675 127.043C15.3891 127.337 14.871 127.578 14.3722 127.858C12.9914 128.63 11.7937 129.609 10.8948 130.935C10.502 131.511 10.0369 132.037 9.57662 132.625C9.06574 132.466 8.57896 132.343 8.11386 132.16H8.11627ZM15.0228 144.606C14.5433 144.08 13.9963 143.644 13.3311 143.371C12.4588 143.012 11.6756 142.491 10.8972 141.966C9.21515 140.835 8.55727 139.227 8.67535 137.23C8.74282 136.109 9.14286 135.111 9.58144 134.103C10.2104 132.654 11.0707 131.359 12.1576 130.214C13.254 129.056 14.5047 128.157 16.0735 127.754C16.1844 127.726 16.2904 127.67 16.5531 127.569C16.729 127.783 16.876 127.964 17.023 128.145C18.1122 129.493 19.5871 130.313 21.0956 131.053C22.3969 131.689 23.744 132.208 25.1393 132.601C26.1731 132.897 27.1973 132.95 28.2528 132.664C29.2721 132.393 30.2746 132.066 31.2578 131.68C32.2386 131.289 33.2484 130.983 34.2822 130.761C34.7521 130.657 35.2076 130.638 35.6654 130.821C36.0269 130.968 36.4004 131.091 36.7715 131.21C37.5427 131.448 38.0174 131.993 38.3114 132.712C38.4319 133.001 38.5259 133.298 38.5958 133.604C38.909 134.983 39.0199 136.379 38.9259 137.79C38.8199 139.448 38.3885 141.018 37.6343 142.501C37.0631 143.639 36.2703 144.596 35.2582 145.368C34.6244 145.852 33.8532 146.055 33.0797 146.18C31.5398 146.429 30.0047 146.694 28.4311 146.716C27.2021 146.737 26.0237 146.988 24.8935 147.466C24.2814 147.721 23.6597 147.955 23.0427 148.201C22.4258 148.444 21.7583 148.546 21.0932 148.575C20.6209 148.592 20.1775 148.452 19.7509 148.213C17.9942 147.246 16.3796 146.094 15.0204 144.606H15.0228ZM31.8892 154.065C31.8965 154.26 31.9157 154.453 31.9519 154.643C31.9832 154.846 31.9422 155.029 31.8242 155.196C31.5615 155.581 31.3615 156.025 31.0434 156.358C30.2361 157.207 29.4625 158.096 28.501 158.781C28.0263 159.123 27.5274 159.427 27.0093 159.697C25.9683 160.233 24.9489 160.818 23.9585 161.443C23.0524 162.017 22.0692 162.357 21.0474 162.629C19.5605 163.025 18.0351 163.013 16.5193 163.119C14.3409 163.268 12.2419 162.921 10.1887 162.2C8.82717 161.718 7.43911 161.32 6.02454 161.009C5.68475 160.937 5.33533 160.864 5.07748 160.577C4.98349 160.175 5.16423 159.811 5.27508 159.444C6.14985 156.536 7.53309 153.872 9.23925 151.379C10.2225 149.939 11.5165 148.806 13.0106 147.924C14.0155 147.331 15.0469 146.774 16.2615 146.477C16.9338 147.08 17.7387 147.557 18.5195 148.071C18.9099 148.329 19.3123 148.582 19.7389 148.765C20.8859 149.255 22.0306 149.108 23.1608 148.664C23.8886 148.379 24.6115 148.083 25.3465 147.82C26.6069 147.367 27.9058 147.113 29.2505 147.145C30.2746 147.171 31.2675 146.954 32.2748 146.812C32.4628 146.786 32.6483 146.692 32.8387 146.817C33.0098 146.995 32.8845 147.174 32.8291 147.352C32.1206 149.537 31.9326 151.791 31.8868 154.065H31.8892ZM52.0571 146.658C52.3703 148.03 52.1004 149.373 51.898 150.728C51.6956 152.083 51.2088 153.37 50.8281 154.68C50.4666 155.919 50.0521 157.141 49.7388 158.39C49.3147 160.071 48.3724 161.448 47.3121 162.759C46.7723 163.427 46.1843 164.057 45.606 164.691C44.7601 165.614 43.9866 166.593 43.225 167.584C42.3527 168.722 41.2635 169.583 39.8706 169.947C39.5862 169.884 39.4368 169.696 39.2922 169.518C38.2512 168.247 37.1836 166.993 36.3209 165.592C35.5016 164.264 34.7569 162.894 34.2966 161.385C34.0364 160.527 33.699 159.692 33.3978 158.846C32.4579 156.213 32.2218 153.52 32.6628 150.764C32.7977 149.915 32.9086 149.064 33.1086 148.225C33.2508 147.646 33.4677 147.094 33.7592 146.573C35.7425 146.12 36.9715 144.702 37.9162 143.051C39.5356 140.222 39.9091 137.175 39.1862 133.992C39.1091 133.654 39.0633 133.31 39.003 132.975C39.2368 132.782 39.3934 132.984 39.5115 133.085C40.02 133.51 40.5429 133.929 40.9887 134.414C41.8346 135.333 42.6105 136.321 43.4588 137.237C43.9866 137.806 44.4998 138.404 45.2204 138.759C45.2903 138.793 45.3577 138.834 45.418 138.882C46.5 139.796 47.7796 140.005 49.1364 139.919C49.6231 139.88 50.1075 139.902 50.5871 139.986C50.8305 140.379 51.0016 140.801 51.098 141.252C51.5004 143.041 52.1101 144.789 52.0522 146.66L52.0571 146.658ZM60.6577 129.184C60.0432 130.185 59.3516 131.14 58.5058 131.962C57.778 132.671 57.0117 133.336 56.2743 134.038C55.9273 134.354 55.6067 134.696 55.3103 135.06C54.5416 136.051 53.6909 136.97 52.8427 137.891C51.5414 139.299 49.9027 139.772 48.0519 139.523C46.6952 139.345 45.5481 138.728 44.5866 137.727C44.0974 137.221 43.6299 136.702 43.16 136.177C41.9358 134.812 40.7188 133.433 39.2922 132.258C38.6006 131.677 37.8439 131.2 37.0222 130.826C36.7836 130.72 36.4751 130.689 36.3595 130.39C37.4873 129.172 37.6583 128.871 38.2295 127.103C39.7621 126.638 41.2924 126.134 42.4876 125.011C44.1577 123.438 45.1047 121.553 44.9433 119.173C44.8565 117.888 44.5264 116.716 43.8709 115.622C43.5865 115.147 43.2732 114.708 42.8491 114.348C42.6732 114.201 42.5262 114.021 42.3575 113.849C42.519 113.266 42.8853 112.861 43.2901 112.497C44.3504 111.547 45.5216 110.814 46.9073 110.392C48.4062 109.936 49.8979 109.476 51.4402 109.21C52.8644 108.964 54.2934 108.755 55.7441 109.075C56.4478 109.23 57.0864 109.476 57.6286 109.963C58.0359 110.329 58.4744 110.657 58.8769 111.026C59.8239 111.889 60.4144 112.993 60.9349 114.139C61.2096 114.744 61.412 115.383 61.6892 115.986C62.1735 117.042 62.1398 118.11 61.8217 119.192C61.6699 119.718 61.5108 120.241 61.3325 120.76C61.1493 121.295 61.1614 121.821 61.2819 122.373C61.506 123.405 61.6795 124.439 61.6843 125.507C61.6964 126.833 61.3542 128.061 60.6529 129.184H60.6577ZM79.9316 114.881C80.6714 116.082 81.2931 117.329 81.7413 118.681C81.9871 119.414 82.3101 120.126 82.551 120.871C83.1053 122.587 83.3391 124.369 83.674 126.129C83.9873 127.776 84.2692 129.423 84.3198 131.113C84.3439 131.931 84.3994 132.75 84.397 133.57C84.3921 133.765 84.356 133.956 84.2909 134.139C84.1825 134.46 83.968 134.672 83.6041 134.679C83.4089 134.682 83.2113 134.708 83.021 134.679C81.7462 134.489 80.4738 134.296 79.2038 134.081C78.5507 133.97 77.9193 133.763 77.2928 133.539C75.7095 132.975 74.1142 132.439 72.5165 131.921C71.7213 131.663 71.0152 131.294 70.4224 130.682C70.0175 130.264 69.5428 129.91 69.0777 129.553C67.6848 128.475 66.2919 127.4 64.8846 126.342C64.1809 125.813 63.6508 125.155 63.1905 124.417C62.776 123.754 62.4458 123.045 61.9542 122.423C61.6241 122.006 61.6337 121.473 61.7928 120.962C61.9759 120.364 62.1639 119.769 62.3567 119.173C62.735 118.011 62.6965 116.892 62.2097 115.747C61.6578 114.45 61.1734 113.131 60.3999 111.94C60.3396 111.848 60.3204 111.73 60.2264 111.477C61.6096 111.879 62.8579 111.93 64.1038 111.952C65.1015 111.969 66.0172 111.595 66.9305 111.236C67.4366 111.036 67.9475 110.833 68.4704 110.676C68.803 110.577 69.1644 110.503 69.509 110.52C70.6368 110.592 71.6972 110.356 72.6876 109.811C73.0202 109.943 73.3431 110.074 73.666 110.201C74.2178 110.418 74.7842 110.575 75.3842 110.488C75.9843 110.401 76.418 110.671 76.8446 111.062C78.0615 112.188 79.064 113.478 79.9316 114.881ZM84.7151 98.7653C83.7873 100.084 83.0619 101.497 82.6956 103.088C82.5173 103.867 82.5486 104.639 82.5366 105.415C82.5269 105.883 82.5414 106.353 82.5703 106.823C82.6016 107.344 82.4787 107.831 82.3052 108.313C81.9534 109.307 80.7316 110.02 79.7002 109.83C79.4327 109.782 79.1652 109.719 78.9025 109.647C78.2856 109.476 77.6687 109.478 77.0542 109.656C76.6421 109.777 76.2228 109.873 75.8011 109.948C74.883 110.102 74.0251 109.953 73.2467 109.357C73.331 109.068 73.4106 108.812 73.478 108.552C73.6708 107.824 73.6419 107.122 73.478 106.365C73.1358 104.788 72.6105 103.286 71.9815 101.815C71.7815 101.352 71.514 100.916 71.2851 100.463C71.1116 100.12 70.8369 99.8238 70.7766 99.45C70.8634 99.139 71.1381 99.139 71.3381 99.0594C71.9189 98.8328 72.5021 98.6037 73.1021 98.4325C73.9142 98.1986 74.5359 97.6634 75.2083 97.2028C75.483 97.0172 75.5963 96.7254 75.6854 96.4192C75.8204 95.9635 75.8132 95.4958 75.8083 95.0063C76.0734 94.7796 76.3361 94.5506 76.6036 94.3263C77.7145 93.4077 78.3555 92.2504 78.3724 90.7868C78.382 90.0852 78.3724 89.3859 78.3724 88.7663C78.6327 88.5034 78.8616 88.4335 79.0978 88.4841C80.7413 88.8217 82.3823 89.1303 83.809 90.1189C85.2693 91.1316 86.0381 92.4722 86.079 94.2492C86.1055 95.0569 86.0019 95.8478 85.7682 96.6218C85.5344 97.3957 85.185 98.1094 84.7151 98.7677V98.7653ZM76.6325 78.5117C77.6205 78.3019 78.57 78.5117 79.4906 78.8589C79.8689 79.0011 80.1749 79.2326 80.4159 79.5557C80.6039 79.8064 80.7991 80.05 80.9991 80.2911C81.7341 81.176 82.6016 81.8824 83.6596 82.3526C83.9801 82.4973 84.2789 82.6878 84.6018 82.8228C85.4645 83.1917 86.0525 83.8258 86.5489 84.6119C86.8333 85.0627 87.0116 85.5016 87.0044 86.0272C86.9996 86.3792 87.0116 86.7312 86.9923 87.0833C86.9417 88.0284 87.0261 88.9495 87.3466 89.8537C87.6165 90.6204 87.5972 91.392 87.202 92.125C87.0671 92.3733 86.8767 92.5518 86.6044 92.6096C86.2381 92.4071 86.1585 92.0382 85.985 91.7464C85.5947 91.0834 85.1006 90.5047 84.5054 90.0152C83.9078 89.5258 83.2451 89.1569 82.5173 88.9037C81.4979 88.542 80.4473 88.1924 79.3436 88.1152C79.0375 88.0935 78.7339 88.0381 78.476 88.0043C78.3989 87.9368 78.3531 87.9175 78.3411 87.8838C77.8133 86.712 76.9096 85.9717 75.7168 85.5498C75.3866 85.4365 75.1047 85.2508 74.8733 84.988C75.0251 84.4624 75.1721 83.9777 75.3047 83.4883C75.4999 82.7746 75.4276 82.1115 74.9818 81.487C74.5938 80.9493 74.2564 80.3779 73.6756 80.009C73.5527 79.9318 73.4708 79.7896 73.3286 79.6328C73.7166 79.2856 74.1431 79.1193 74.5841 79.0011C75.2613 78.8179 75.9457 78.6563 76.6325 78.5117ZM74.0154 58.0869C74.6878 57.7879 75.4131 57.5854 76.1264 57.3828C77.1386 57.0983 78.1579 56.9054 79.2351 56.9874C80.1653 57.0597 81.11 56.9874 82.0474 56.9416C84.25 56.8307 86.414 57.1248 88.578 57.4527C88.8479 57.4986 89.1178 57.5299 89.3901 57.5468C90.1709 57.5781 90.9565 57.5395 91.7132 57.7975C91.7879 57.8216 91.865 57.8313 91.9445 57.8289C93.6507 57.7541 95.099 58.6294 96.6509 59.1213C97.0148 59.2298 97.2968 59.4468 97.4944 59.7723C97.5353 60.281 97.3257 60.7632 97.0437 61.1731C95.875 62.8826 94.8869 64.7175 93.5109 66.2872C92.3494 67.6133 91.1252 68.8767 89.7685 70.0003C89.4672 70.2487 89.1467 70.4705 88.8094 70.6682C86.8839 71.787 84.956 72.9009 83.021 74.0076C81.0425 75.1337 78.8977 75.6545 76.6277 75.6906C76.4493 75.6834 76.271 75.6689 76.0927 75.64C75.8445 75.3458 75.8059 75.0372 75.7457 74.7334C75.6686 74.35 75.5698 73.9715 75.4758 73.5905C75.3529 73.1252 75.1143 72.7297 74.7552 72.4042C74.2178 71.8955 73.6901 71.406 72.9599 71.136C71.8177 70.714 70.8393 69.9835 69.8585 69.2722C69.4801 68.9973 69.097 68.72 68.7018 68.4717C67.8704 67.9412 66.9884 67.541 66.0003 67.3867C65.8533 67.3625 65.7087 67.3143 65.5931 67.2854C65.4702 67.025 65.6726 66.9792 65.7714 66.8875C66.4317 66.2751 67.1064 65.6771 67.7523 65.0551C68.1523 64.6669 68.5813 64.3197 69.1138 64.1702C70.0055 63.9218 70.7308 63.3866 71.4538 62.8633C72.1454 62.3618 72.2803 61.583 72.2996 60.7705C72.3117 60.2834 72.0755 59.8639 71.9767 59.3744C72.4876 58.6897 73.2804 58.4148 74.0154 58.0869ZM70.7838 58.5763C71.3333 59.0803 71.6104 59.7047 71.7671 60.4016C71.9815 61.3708 71.6562 62.1834 70.8417 62.7331C70.2922 63.1045 69.7259 63.4637 69.0825 63.6566C68.2704 63.9025 67.6221 64.3751 67.0655 65.0044C66.7353 65.3902 66.3787 65.7519 65.9979 66.0895C64.9906 66.9454 63.8773 67.5265 62.494 67.4831C61.5205 67.4518 60.5421 67.5217 59.5685 67.5361C59.501 67.5361 59.4336 67.471 59.3444 67.4228C59.354 67.3215 59.3323 67.1962 59.3757 67.0997C59.877 66.0653 59.8721 64.9634 59.7059 63.8808C59.4191 62.0219 58.3347 60.6933 56.7418 59.7506C56.3056 59.495 55.8501 59.2659 55.426 58.9911C55.038 58.7379 54.6428 58.4799 54.3681 58.029C55.6116 56.2014 57.1563 54.6799 59.0046 53.4647C60.1252 52.7197 61.4265 52.358 62.7447 52.1844C63.2531 52.1121 63.7592 52.1338 64.2604 52.2495C64.7617 52.3676 65.2244 52.5678 65.6533 52.8571C66.3305 53.3128 66.9667 53.8119 67.4318 54.528C67.9933 55.3743 68.6005 56.1893 69.2512 56.9681C69.7211 57.5444 70.232 58.0796 70.7838 58.5787V58.5763ZM91.2144 16.4537C91.918 16.4754 92.5036 16.8153 92.9808 17.2783C93.5953 17.8738 94.1495 18.5345 94.7062 19.1879C95.099 19.6508 95.1448 20.2536 95.2942 20.8202C94.6098 21.7292 93.7085 22.3586 92.8314 22.9999C91.3517 24.0801 89.8408 25.1169 88.3346 26.1609C87.4382 26.7806 86.5128 27.3544 85.4187 27.7041C85.332 26.9397 85.25 26.2092 85.1705 25.4762C85.0982 24.8444 84.8934 24.2609 84.5584 23.7233C83.9463 22.725 83.3294 21.7317 82.4811 20.8998C82.2378 20.6611 81.9654 20.4224 81.8546 20.068C82.0546 19.6147 82.4161 19.3253 82.8282 19.089C83.5439 18.6695 84.3126 18.397 85.1344 18.2693C86.1104 18.1366 87.0164 17.8063 87.8527 17.2807C88.872 16.6393 90.0167 16.4151 91.2144 16.4537ZM84.0933 13.9075C84.3994 13.9075 84.7319 13.9292 85.0115 14.0377C85.8621 14.3656 86.7321 14.5392 87.643 14.5055C88.4575 14.4765 89.0672 14.843 89.554 15.4579C89.6504 15.5784 89.7155 15.7207 89.6697 15.8846C89.648 15.9184 89.6335 15.969 89.6022 15.9787C88.5395 16.3645 87.549 16.9046 86.5273 17.3844C86.0429 17.611 85.491 17.7267 84.956 17.8208C83.6186 18.0547 82.4161 18.5538 81.4208 19.4989C81.3678 19.5496 81.2859 19.5665 81.1678 19.6219C80.6617 19.2265 80.1798 18.766 79.9267 18.1463C79.6713 17.5266 79.3267 16.9648 79.0279 16.3669C79.0785 16.2101 79.0785 16.1619 79.105 16.1378C80.5364 14.8768 82.1076 13.922 84.0933 13.9075ZM68.7427 14.7827C68.7572 14.274 68.774 13.7677 68.8921 13.2685C69.244 11.7833 69.591 10.298 69.9476 8.81516C69.991 8.66326 70.0488 8.51859 70.1187 8.37875C71.1863 5.88563 72.5864 3.58781 74.2058 1.42019C74.4347 1.11397 74.6396 0.764358 75.0589 0.532889C75.6878 0.754714 76.124 1.15496 76.5337 1.5745C77.647 2.71738 78.7821 3.84821 79.8303 5.05137C80.4689 5.78677 80.9099 6.6813 81.3148 7.5686C81.7678 8.57164 82.1076 9.60843 82.3366 10.6814C82.4522 11.2022 82.4016 11.7616 82.3992 12.3041C82.3944 12.6923 82.3414 13.0805 82.3052 13.5289C81.6931 13.8882 81.0497 14.2451 80.428 14.6357C79.8327 15.0094 79.2616 15.4193 78.729 15.781C78.623 15.781 78.5772 15.793 78.5459 15.781C77.6181 15.3036 76.9 15.6315 76.2638 16.3476C75.1191 17.6327 73.9889 18.9275 73.3021 20.543C73.09 21.0421 72.7864 21.5026 72.5502 21.9342C72.3117 22.0355 72.1912 21.9221 72.0852 21.8112C71.5646 21.2687 70.9983 20.8082 70.2416 20.6201C69.9621 20.5526 69.7814 20.3597 69.6825 20.0704C69.0873 18.3585 68.6873 16.6128 68.7427 14.7827ZM67.4583 22.1391C67.5113 21.1578 68.2198 20.6057 69.2054 20.7889C70.5405 21.0397 71.5839 21.7003 72.2321 23.0072C71.6948 24.0271 71.7164 25.1555 71.7646 26.2911C71.7863 26.824 71.8634 27.3641 71.62 27.9428C70.4489 27.3641 69.4464 26.6721 68.803 25.5461C68.4752 24.9722 68.1571 24.3911 67.8125 23.8269C67.492 23.2989 67.4245 22.7323 67.4583 22.1391ZM76.5313 40.3288C74.7094 39.7959 73.2105 38.6386 71.5815 37.7344C70.7525 37.2715 70.1428 36.5216 69.5115 35.8344C68.6126 34.8603 67.8077 33.797 66.9884 32.7506C66.6413 32.319 66.3883 31.8343 66.2317 31.3015C66.075 30.7686 66.0268 30.2261 66.0847 29.674C66.1064 29.4425 66.1305 29.2014 66.2148 28.9892C66.5425 28.1718 66.5715 27.311 66.6317 26.4527C66.6847 25.71 66.7546 24.9698 66.8269 24.2296C66.8414 24.0777 66.8679 23.921 67.1522 23.757C67.5017 24.3116 67.8607 24.8252 68.1547 25.3701C68.4391 25.8836 68.774 26.3635 69.1572 26.8095C69.5621 27.2942 70.0513 27.6751 70.62 27.9524C71.073 28.1766 71.5381 28.425 71.9068 28.7601C72.7912 29.563 73.8588 30.0501 74.8974 30.5902C75.9843 31.152 76.9867 31.8392 77.6856 32.8518C78.1917 33.5848 78.5989 34.3974 78.9821 35.2075C79.2737 35.8296 79.2544 36.5023 78.9869 37.1461C78.8495 37.4716 78.7242 37.8092 78.5266 38.0961C77.9555 38.9183 77.5434 39.8948 76.5313 40.3288ZM81.9895 41.0618C81.8329 41.0714 81.6763 41.0618 81.522 41.0329C80.2689 40.7966 79.0182 40.5506 77.7145 40.2975C78.2639 39.4608 78.823 38.6723 79.2616 37.8067C79.8834 36.5771 79.8665 35.4077 79.0857 34.2672C78.864 33.9441 78.7025 33.5945 78.5242 33.2497C78.1073 32.4371 77.529 31.762 76.7891 31.2291C75.965 30.6336 75.0806 30.1369 74.1721 29.674C73.4828 29.3219 72.7599 29.0013 72.2635 28.3888C72.1406 27.1085 72.2105 24.9071 72.4298 24.056C72.8274 22.4526 73.4804 20.9625 74.3865 19.5833C75.0131 18.6406 75.7481 17.7701 76.4397 16.8732C76.6807 16.5622 76.9626 16.2994 77.341 16.145C77.6735 16.01 77.9651 16.0606 78.2013 16.309C78.582 16.7092 78.8785 17.165 79.0929 17.6761C79.5436 18.7394 80.2183 19.634 81.1148 20.3621C82.0811 21.1602 82.8836 22.1199 83.5921 23.1639C84.6114 24.6636 84.9585 26.2863 84.6259 28.0754C83.821 28.4949 83.0306 28.9096 82.2378 29.3219C81.4618 29.7198 80.8087 30.2671 80.281 30.9639C79.7412 31.6752 79.1122 32.3262 78.8134 33.1605C78.9025 33.3124 78.9965 33.363 79.1869 33.3606C79.4761 32.7096 79.9894 32.1743 80.4304 31.5836C81.0232 30.7879 81.7365 30.1369 82.633 29.6933C83.3318 29.346 83.9969 28.9265 84.7729 28.7601C84.8886 28.7384 84.9994 28.7023 85.103 28.6516C85.9585 28.1815 86.7996 27.6896 87.6647 27.2435C88.2599 26.9325 88.7708 26.5202 89.3034 26.1223C89.9878 25.6064 90.73 25.1699 91.4361 24.6829C92.2385 24.1283 93.0314 23.5569 93.8218 22.983C94.0074 22.8408 94.1785 22.6816 94.3375 22.508C94.8604 21.9752 95.4629 21.5436 96.0822 21.1313C96.275 20.9963 96.4847 20.895 96.7088 20.8227C97.6992 20.5357 98.574 21.0758 98.6439 22.1006C98.7089 23.0747 98.6366 24.0656 98.1691 24.9554C97.8221 25.6136 97.4389 26.2477 97.022 26.8626C96.6268 27.4485 96.2389 28.0272 95.9425 28.6733C95.7424 29.0977 95.5231 29.5124 95.2797 29.9151C94.8653 30.6264 94.5375 31.3762 94.2917 32.1623C93.1904 35.6006 90.9083 37.9948 87.7153 39.5765C87.1924 39.8369 86.6453 40.0515 86.1128 40.295C84.797 40.893 83.3969 40.9967 81.9895 41.0594V41.0618ZM101.507 35.3594C101.249 35.6006 100.989 35.832 100.663 35.9815C100.307 36.1431 99.9669 36.3408 99.603 36.4782C98.4993 36.8953 97.4968 37.4861 96.5955 38.248C96.1039 38.6603 95.687 39.0943 95.4147 39.6754C95.2171 40.0997 94.993 40.5121 94.805 40.9412C94.1254 42.5012 92.9012 43.4874 91.4023 44.1722C90.9734 44.3651 90.53 44.5121 90.0721 44.6182C89.3708 44.787 88.7178 44.6737 88.0286 44.3795C86.7441 43.8274 85.638 43.0823 84.756 41.9997C84.6138 41.8261 84.3198 41.7924 84.2837 41.4596C85.3488 41.1245 86.3923 40.7339 87.4165 40.2902C89.0889 39.5669 90.5372 38.5421 91.8144 37.2498C92.5325 36.524 93.1446 35.7211 93.723 34.8893C93.9688 34.5445 94.1278 34.1346 94.2917 33.7392C94.5761 33.052 94.8291 32.3552 95.099 31.6632C95.2364 31.3087 95.4653 31.0652 95.8702 31.0531C97.0004 31.0121 98.1354 30.8771 99.2391 31.2629C100.058 31.545 100.798 31.9718 101.454 32.5384C102.41 33.351 102.167 34.7374 101.507 35.3594Z" fill="#A6A6A6" fill-opacity="0.8"/>
</g>
</svg>
