<svg xmlns="http://www.w3.org/2000/svg" xmlns:xlink="http://www.w3.org/1999/xlink" width="40" zoomAndPan="magnify" viewBox="0 0 30 30.000001" height="40" preserveAspectRatio="xMidYMid meet" version="1.0"><defs><clipPath id="a9dcc3116c"><path d="M 0.644531 0.648438 L 29.480469 0.648438 L 29.480469 28.949219 L 0.644531 28.949219 Z M 0.644531 0.648438 " clip-rule="nonzero"/></clipPath></defs><g clip-path="url(#a9dcc3116c)"><path fill="#ffffff" d="M 28.753906 13.261719 C 29.539062 14.042969 29.539062 15.316406 28.753906 16.101562 L 16.414062 28.441406 C 16.023438 28.832031 15.507812 29.027344 14.992188 29.027344 C 14.480469 29.027344 13.964844 28.832031 13.574219 28.441406 L 1.234375 16.101562 C 0.449219 15.316406 0.449219 14.042969 1.234375 13.261719 C 2.019531 12.476562 3.292969 12.476562 4.078125 13.261719 L 14.992188 24.175781 L 25.910156 13.261719 C 26.695312 12.476562 27.96875 12.476562 28.753906 13.261719 Z M 13.574219 16.417969 C 13.964844 16.808594 14.480469 17.007812 14.992188 17.007812 C 15.507812 17.007812 16.023438 16.808594 16.414062 16.417969 L 28.753906 4.082031 C 29.539062 3.292969 29.539062 2.023438 28.753906 1.238281 C 27.96875 0.453125 26.695312 0.453125 25.910156 1.238281 L 14.992188 12.15625 L 4.078125 1.238281 C 3.292969 0.453125 2.019531 0.453125 1.234375 1.238281 C 0.449219 2.023438 0.449219 3.292969 1.234375 4.082031 Z M 13.574219 16.417969 " fill-opacity="1" fill-rule="nonzero"/></g></svg>